<svg width="503" height="424" viewBox="0 0 503 424" fill="none" xmlns="http://www.w3.org/2000/svg">
<circle cx="213.515" cy="34.9606" r="34.9606" fill="#F0EBE2" fill-opacity="0.07"/>
<circle cx="320.525" cy="145.618" r="34.9606" fill="#F0EBE2" fill-opacity="0.03"/>
<circle cx="118.362" cy="257.796" r="60.193" fill="#F0EBE2" fill-opacity="0.02"/>
<circle cx="443.084" cy="86.8634" r="19.7603" transform="rotate(41.2802 443.084 86.8634)" fill="#F0EBE2" fill-opacity="0.01"/>
<line x1="234.69" y1="57.5628" x2="300.355" y2="123.228" stroke="#C4C4C4" stroke-opacity="0.02" stroke-width="4"/>
<circle cx="391.262" cy="275.512" r="34.9606" transform="rotate(-138.837 391.262 275.512)" fill="#F0EBE2" fill-opacity="0.07"/>
<line x1="372.751" y1="246.502" x2="340.766" y2="173.525" stroke="#C4C4C4" stroke-opacity="0.02" stroke-width="4"/>
<line x1="426.559" y1="97.4056" x2="351.256" y2="130.713" stroke="#C4C4C4" stroke-opacity="0.02" stroke-width="4"/>
<circle cx="124.018" cy="400.17" r="19.7603" transform="rotate(168.018 124.018 400.17)" fill="#F0EBE2" fill-opacity="0.02"/>
<line x1="123.538" y1="381.364" x2="122.323" y2="317.962" stroke="#C4C4C4" stroke-opacity="0.02" stroke-width="4"/>
<ellipse rx="19.7637" ry="19.7629" transform="matrix(-0.112146 0.993692 -0.993658 -0.112441 481.129 340.897)" fill="#F0EBE2" fill-opacity="0.02"/>
<line x1="462.942" y1="332.859" x2="414.965" y2="299.964" stroke="#C4C4C4" stroke-opacity="0.02" stroke-width="4"/>
<ellipse rx="14.2247" ry="14.2242" transform="matrix(0.742031 0.670366 -0.670586 0.741832 458.729 245.659)" fill="#F0EBE2" fill-opacity="0.02"/>
<ellipse rx="14.2247" ry="14.2242" transform="matrix(0.742031 0.670366 -0.670586 0.741832 458.729 245.659)" fill="#F0EBE2" fill-opacity="0.02"/>
<ellipse rx="14.2247" ry="14.2242" transform="matrix(0.0461328 -0.998935 0.998922 0.0464291 14.865 205.171)" fill="#F0EBE2" fill-opacity="0.05"/>
<line x1="27.3396" y1="210.735" x2="66.4154" y2="226.957" stroke="#C4C4C4" stroke-opacity="0.02" stroke-width="4"/>
<line x1="294.116" y1="167.881" x2="168.851" y2="228.193" stroke="#C4C4C4" stroke-opacity="0.02" stroke-width="4"/>
</svg>
