<svg width="178" height="25" viewBox="0 0 178 25" fill="none" xmlns="http://www.w3.org/2000/svg">
<g clip-path="url(#clip0)">
<path d="M16.1206 9.47241C15.7691 9.57784 15.4252 9.70165 15.1079 9.90109C14.7713 10.1128 14.6187 10.4317 14.4858 10.7763C14.4744 10.859 14.469 10.9426 14.4407 11.0243C14.4026 11.135 14.4176 11.4563 14.3778 11.6367C14.3766 11.6421 14.3743 11.6462 14.3729 11.6503C14.3729 11.6556 14.3696 11.6624 14.3694 11.6679C14.3729 11.6951 14.3846 11.7155 14.3845 11.7456C14.3836 11.7902 14.3831 11.834 14.3823 11.8783C14.3815 11.8874 14.3786 11.8944 14.3773 11.902C14.4007 11.9595 14.4121 12.0185 14.4137 12.0799L14.5359 12.2349C14.6334 12.3645 14.7313 12.4936 14.8263 12.6231C15.0063 12.8673 15.178 13.1113 15.3477 13.3536C15.4512 13.5023 15.5574 13.6504 15.6582 13.7982C15.8738 14.1161 16.0788 14.4322 16.2767 14.7453C16.3171 14.8076 16.3613 14.8715 16.4002 14.9342C16.6429 15.3231 16.8682 15.7056 17.0828 16.0833C17.1624 16.2231 17.2336 16.3598 17.3089 16.499C17.4403 16.7403 17.5691 16.9811 17.688 17.2167C17.7947 17.4267 17.8967 17.636 17.9937 17.8395C18.024 17.9066 18.0582 17.9735 18.0876 18.0392C18.2224 18.3335 18.347 18.6233 18.4591 18.9036C18.464 18.9142 18.4669 18.9242 18.4714 18.9352C18.576 19.1983 18.6677 19.4544 18.7518 19.7045C18.7771 19.7764 18.7984 19.847 18.8212 19.9192C18.8706 20.0726 18.9122 20.2224 18.9537 20.3702C19.0128 20.5851 19.0611 20.7933 19.1025 20.9943C19.1188 21.0793 19.1405 21.1654 19.1538 21.2475C19.1998 21.509 19.2308 21.7594 19.2428 21.9939C19.2428 22.0112 19.2471 22.0285 19.2477 22.0443C19.2483 22.0589 19.2457 22.072 19.2469 22.0858C19.2495 22.15 19.2423 22.2061 19.2413 22.2681C19.2367 22.2681 19.2317 22.2664 19.2273 22.2654C19.1926 22.2558 19.5281 22.3545 19.7742 22.4048C19.7956 22.409 19.8167 22.4128 19.8415 22.4171C20.0267 22.4521 20.215 22.4746 20.3999 22.4843L20.4951 22.4849C20.6716 22.4911 20.8392 22.4814 20.9902 22.4581C21.0139 22.4542 21.0362 22.4501 21.0649 22.4432C21.2288 22.4138 21.3765 22.3723 21.5024 22.3193L21.5449 22.2976C21.6974 22.2282 21.824 22.1514 21.9316 22.0623L21.9516 22.0854L21.9321 22.061C21.9273 22.065 21.9208 22.068 21.9171 22.0706C23.1007 20.0019 21.0732 14.7991 17.014 9.54632C16.9069 9.54278 16.7962 9.5268 16.6788 9.48189C16.493 9.47498 16.3071 9.4734 16.1206 9.47241ZM17.148 12.65C17.336 12.6425 17.5455 12.7651 17.6757 12.9776C17.8489 13.261 17.8148 13.5969 17.5987 13.7294C17.383 13.8603 17.0668 13.7372 16.8938 13.4541C16.72 13.1705 16.7549 12.8344 16.971 12.7026C17.0251 12.6696 17.0854 12.6526 17.148 12.65ZM18.3319 14.4049C18.5201 14.4104 18.7209 14.5472 18.8354 14.7679C18.989 15.0623 18.9303 15.3957 18.7063 15.5112C18.4798 15.6296 18.1753 15.4837 18.0229 15.1881C17.8687 14.8949 17.927 14.5612 18.1514 14.445C18.2077 14.4159 18.2691 14.4031 18.3319 14.4049ZM19.3276 16.294C19.5288 16.2981 19.7372 16.4619 19.8345 16.7139C19.9555 17.0226 19.8612 17.3479 19.6249 17.4383C19.3886 17.5312 19.0997 17.3543 18.9792 17.0444C18.859 16.7354 18.9542 16.4099 19.1909 16.3175C19.2351 16.3005 19.2811 16.293 19.3276 16.294ZM20.1713 18.1279C20.2916 18.1268 20.4141 18.1783 20.518 18.2736C20.622 18.3689 20.7009 18.5022 20.7416 18.6508C20.7883 18.8217 20.7808 18.9998 20.7208 19.1459C20.6607 19.2921 20.5531 19.3944 20.4215 19.4302C20.3563 19.448 20.2872 19.4489 20.2181 19.433C20.1491 19.417 20.0814 19.3845 20.0189 19.3372C19.9565 19.29 19.9005 19.2289 19.8542 19.1576C19.8079 19.0862 19.7722 19.0059 19.7491 18.9213C19.7023 18.7505 19.7098 18.5724 19.7699 18.4263C19.8299 18.2801 19.9376 18.1778 20.0692 18.1419C20.1023 18.1329 20.1365 18.1282 20.1713 18.1279Z" fill="#BE2B2B"/>
<path d="M3.35263 0.548703L3.37709 0.510503C3.3911 0.484626 3.40686 0.460398 3.42183 0.437129C3.51764 0.304464 3.60945 0.205493 3.70678 0.122258C5.78131 -0.58965 9.96324 1.85941 14.0569 6.11552C14.2824 7.73633 12.9375 9.03617 11.6 8.7466C11.5963 8.74113 11.593 8.73843 11.5888 8.73435C11.3741 8.50702 11.1608 8.28903 10.9452 8.0714C10.8366 7.96189 10.7277 7.84704 10.6203 7.74049C10.2981 7.42225 9.97677 7.11523 9.65721 6.8222C9.54706 6.72171 9.43769 6.62965 9.32763 6.53133C9.12201 6.34742 8.91497 6.16359 8.71078 5.98974C8.56816 5.86995 8.42881 5.75986 8.28757 5.64549C8.09848 5.49163 7.90959 5.33888 7.72412 5.19639C7.59357 5.09549 7.46385 5.00058 7.33442 4.90578C7.13922 4.76242 6.94637 4.62393 6.75614 4.49357C6.63208 4.40773 6.50824 4.32386 6.38587 4.2444C6.22786 4.14091 6.07425 4.04409 5.92006 3.95007C5.79514 3.87409 5.67071 3.79988 5.54903 3.72981C5.39755 3.64301 5.25027 3.5638 5.10294 3.48711C4.98679 3.42647 4.86819 3.365 4.75425 3.30958C4.60966 3.24004 4.47045 3.18034 4.33031 3.12174C4.22191 3.07573 4.11173 3.02823 4.00589 2.98881C3.8702 2.93746 3.73853 2.89736 3.60801 2.85724C3.50899 2.82753 3.40951 2.79359 3.31464 2.77099C3.20949 2.74416 3.1132 2.73184 3.01341 2.7139L3.01301 2.71798C2.99493 2.53436 2.98381 2.35387 2.98145 2.21838C2.98156 2.16746 2.9822 2.11489 2.98415 2.06319L2.98938 1.96695C2.99428 1.83881 2.99985 1.71082 3.01517 1.58911C3.02615 1.5119 3.03971 1.43641 3.05416 1.36068C3.07561 1.25226 3.10038 1.148 3.13267 1.0496C3.15534 0.972659 3.18365 0.89861 3.21259 0.828668C3.25435 0.725444 3.30206 0.632664 3.35263 0.548703Z" fill="#BE2B2B"/>
<path d="M0.356784 2.87216C0.379065 2.83343 0.400586 2.79317 0.426141 2.758C0.438805 2.73856 0.448725 2.71625 0.461352 2.69817C0.531368 2.60577 0.609706 2.52142 0.697803 2.44554C0.708432 2.43596 0.719764 2.4261 0.732726 2.41583L3.14769 0.417816C3.15291 0.415144 3.15613 0.412321 3.16187 0.410889C3.14853 0.416383 3.14105 0.430887 3.12764 0.436766C3.07435 0.526846 3.02295 0.625016 2.97899 0.73388C2.9472 0.810126 2.91548 0.891794 2.88997 0.975112C2.85569 1.0834 2.8276 1.19657 2.80569 1.31461C2.78932 1.39401 2.77563 1.47493 2.76397 1.55924C2.74911 1.68792 2.74104 1.82343 2.73514 1.9594L2.73143 2.05563C2.72957 2.11052 2.72824 2.1646 2.72773 2.22425C2.73178 2.39848 2.74191 2.62515 2.77051 2.86678C2.77221 2.88949 2.77693 2.91606 2.78149 2.94111L2.78639 2.97601C2.81274 3.18943 2.85151 3.41713 2.90559 3.6698L2.91066 3.70128C2.91403 3.72277 2.91825 3.74288 2.92264 3.76247C2.96749 3.96884 3.0275 4.19978 3.1156 4.5049C3.1354 4.57499 3.15882 4.64647 3.18024 4.71768L3.20843 4.80721C3.26832 4.99874 3.33427 5.1954 3.40684 5.39364C3.4404 5.49222 3.47455 5.59108 3.51303 5.69188C3.60754 5.93997 3.71139 6.19365 3.82077 6.45292L3.84281 6.50563C3.85529 6.53862 3.86852 6.57038 3.88461 6.60378C4.00404 6.8787 4.14275 7.17756 4.30998 7.51703C4.52757 7.96191 4.73371 8.3585 4.93876 8.72951C5.13937 9.09017 5.35827 9.46529 5.66047 9.95952C5.71349 10.0466 5.77041 10.1351 5.82672 10.2226L5.92427 10.3784C6.08918 10.6374 6.25599 10.8969 6.43069 11.1576C6.50548 11.2708 6.58343 11.3847 6.66307 11.498L6.75226 11.6249C6.92989 11.8844 7.11302 12.1425 7.3034 12.4C7.37202 12.4952 7.44264 12.5912 7.51531 12.6881L7.58401 12.7821C8.07052 13.4284 8.45799 13.9239 8.84296 14.3875C9.09733 14.6921 9.35279 14.9857 9.60959 15.2772C9.80827 15.5022 10.0074 15.7201 10.2073 15.9384C10.3465 16.0915 10.482 16.2427 10.6199 16.3855C10.8292 16.6055 11.0379 16.8183 11.247 17.0288L11.4168 17.1991C11.4909 17.2727 11.5633 17.3469 11.6373 17.4183C11.8739 17.6505 12.1109 17.8725 12.349 18.0921L12.4814 18.216C12.541 18.2737 12.603 18.3299 12.6613 18.3849C12.9162 18.616 13.1872 18.8493 13.5393 19.1429L13.5789 19.1797C13.614 19.2097 13.6499 19.2415 13.6838 19.2709C14.0215 19.547 14.3638 19.8171 14.7309 20.0913C14.7913 20.1378 14.8508 20.1787 14.9104 20.2206L15.0166 20.2981C15.2571 20.4726 15.4987 20.6402 15.7314 20.7993C15.9795 20.9649 16.224 21.1234 16.4638 21.2685L16.5724 21.3304C16.8586 21.5012 17.1162 21.6478 17.3615 21.7742C17.375 21.7822 17.3966 21.7924 17.4178 21.8017C17.7113 21.9521 17.961 22.0697 18.1921 22.1696L18.2223 22.1832C18.4759 22.2884 18.7179 22.3763 18.9603 22.4548L19.0372 22.4809C19.2533 22.5476 19.4679 22.6033 19.6942 22.6493C19.7465 22.6616 19.7725 22.6652 19.7981 22.6697C19.99 22.7053 20.1904 22.7282 20.3882 22.7376L20.467 22.7403C20.6804 22.7459 20.8615 22.7363 21.0291 22.7096C21.0587 22.7056 21.0854 22.6999 21.1139 22.6941C21.2563 22.6698 21.382 22.6267 21.5044 22.5826L19.109 24.5643C18.9731 24.6765 18.8196 24.763 18.6528 24.8308C18.5978 24.8539 18.5332 24.862 18.4748 24.8801C18.3574 24.9146 18.2396 24.9503 18.1092 24.9673C18.0319 24.977 17.9461 24.9742 17.8648 24.977C17.7405 24.9839 17.617 24.9879 17.4855 24.9765C17.391 24.9696 17.2915 24.9533 17.1932 24.9392C17.0605 24.9192 16.9271 24.8978 16.7875 24.8654C16.6802 24.841 16.5696 24.8083 16.4582 24.7752C16.3158 24.7334 16.1718 24.6888 16.0228 24.6355C15.9059 24.5936 15.7873 24.5469 15.6675 24.4982C15.5114 24.4357 15.3548 24.3657 15.1933 24.291C15.0722 24.2345 14.95 24.1748 14.8262 24.1111C14.6548 24.025 14.4807 23.9295 14.3036 23.8297C14.184 23.762 14.0643 23.6952 13.9417 23.6226C13.7457 23.505 13.5459 23.3774 13.3453 23.2462C13.2683 23.1961 13.1948 23.1549 13.1174 23.1025C13.0864 23.0822 13.0539 23.056 13.0223 23.0362C12.7727 22.8647 12.5189 22.6819 12.262 22.4932C12.1764 22.4298 12.0923 22.3716 12.0056 22.3068C11.7173 22.0869 11.4256 21.854 11.131 21.6126C11.0738 21.5651 11.0187 21.524 10.9611 21.4766C10.8211 21.3595 10.6794 21.2274 10.5383 21.1051C10.3493 20.9415 10.1609 20.78 9.9709 20.6079C9.84106 20.49 9.71071 20.3637 9.5811 20.2413C9.37505 20.0475 9.16855 19.8562 8.96148 19.6515C8.9233 19.6152 8.88568 19.5818 8.84841 19.5435C8.73237 19.4281 8.61587 19.3021 8.49943 19.1846C8.31398 18.9965 8.12929 18.8087 7.94452 18.6125C7.79187 18.4512 7.641 18.2845 7.48931 18.1188C7.30855 17.9199 7.12648 17.7201 6.94591 17.5153C6.88492 17.4452 6.82232 17.3803 6.76059 17.3095C6.56179 17.0785 6.36139 16.8433 6.16353 16.604C5.72519 16.075 5.31423 15.5465 4.91577 15.0172C4.87114 14.9564 4.81976 14.8977 4.77544 14.8371C4.71719 14.761 4.6678 14.6852 4.6111 14.6086C4.43719 14.3696 4.26734 14.1324 4.10186 13.894C3.97851 13.718 3.85519 13.5427 3.73717 13.368C3.5769 13.1312 3.42598 12.8969 3.27649 12.6625C3.19868 12.5421 3.1137 12.4205 3.03894 12.301C3.01475 12.2616 2.9951 12.2255 2.97039 12.1871C2.75829 11.8412 2.55687 11.5017 2.36508 11.1642C2.326 11.0965 2.28262 11.0283 2.24523 10.9601C2.02207 10.5618 1.81627 10.1699 1.62507 9.78597C1.61072 9.75942 1.59582 9.73148 1.58218 9.70575C1.44242 9.42245 1.3122 9.14514 1.19007 8.87076C1.17206 8.82927 1.15636 8.78889 1.1369 8.74673C1.02191 8.48287 0.91416 8.22466 0.815536 7.97021C0.777261 7.87438 0.7443 7.78301 0.709782 7.68888C0.634817 7.4882 0.565814 7.2898 0.503535 7.09582C0.472326 7.00217 0.441183 6.9067 0.413433 6.81383C0.397227 6.7599 0.376939 6.70321 0.361326 6.65086C0.339773 6.57612 0.32983 6.51036 0.310029 6.43707C0.251154 6.21919 0.199604 6.00599 0.157524 5.80119C0.134197 5.68523 0.112387 5.57135 0.0939887 5.46072C0.0614107 5.25809 0.039502 5.06511 0.0247655 4.87636C0.018191 4.81325 0.00304272 4.74123 0.000829838 4.67935C-0.00118725 4.64663 0.00180891 4.61883 0.001221 4.58831C-0.00148813 4.49864 0.00149017 4.41431 0.00307784 4.32831C0.00578697 4.19715 0.0108337 4.06847 0.0239566 3.94584C0.0323962 3.86534 0.0455781 3.78799 0.0600961 3.71055C0.0709098 3.64922 0.0746115 3.58255 0.0889269 3.52423C0.0995558 3.47644 0.120051 3.43853 0.132678 3.39403C0.156513 3.31448 0.183197 3.23865 0.21343 3.16579C0.230393 3.12253 0.239425 3.07353 0.259039 3.03217C0.287194 2.97412 0.323532 2.92449 0.356784 2.87216Z" fill="#DF3636"/>
<path d="M13.1409 4.62939L12.9202 4.83972L13.8491 5.77379C14.2017 6.13266 14.3977 6.61625 14.3943 7.11893C14.391 7.62162 14.1886 8.10255 13.8313 8.45671C13.474 8.81085 12.9908 9.00944 12.4874 9.00911C11.9839 9.00878 11.5011 8.80955 11.1442 8.45494L10.1629 7.46773L9.94226 7.67806L10.9279 8.6692C11.3416 9.08111 11.9019 9.31271 12.4862 9.31335C13.0704 9.314 13.6312 9.08364 14.0458 8.67264C14.4603 8.26164 14.6951 7.70351 14.6986 7.12023C14.7022 6.53696 14.4744 5.97599 14.065 5.55992L13.1409 4.62939Z" fill="#BE2B2B"/>
<path d="M13.0809 7.91054L13.3926 7.63794L14.0936 8.4369L13.782 8.70951L13.0809 7.91054Z" fill="#BE2B2B"/>
<path d="M26.2665 0.467529H39.5693V4.18765H31.1958V7.74158H39.0699V11.4617H31.1958V19.5539H26.2665V0.467529Z" fill="white"/>
<path d="M52.9489 9.13513C52.5477 8.94763 52.1465 8.81127 51.7453 8.72605C51.3527 8.6323 50.9558 8.58542 50.5546 8.58542C49.3767 8.58542 48.4677 8.96468 47.8275 9.72319C47.1958 10.4732 46.88 11.5513 46.88 12.9576V19.5541H42.2964V5.23604H46.88V7.58828C47.469 6.65079 48.1433 5.96898 48.903 5.54285C49.6712 5.1082 50.5888 4.89087 51.6557 4.89087C51.8094 4.89087 51.9758 4.89939 52.155 4.91644C52.3343 4.92494 52.5946 4.95051 52.9361 4.99313L52.9489 9.13513Z" fill="white"/>
<path d="M62.0521 8.16355C61.0363 8.16355 60.2596 8.53003 59.7218 9.26297C59.1926 9.98739 58.928 11.0357 58.928 12.4078C58.928 13.78 59.1926 14.8325 59.7218 15.5655C60.2596 16.2899 61.0363 16.6521 62.0521 16.6521C63.0507 16.6521 63.8147 16.2899 64.3439 15.5655C64.8731 14.8325 65.1377 13.78 65.1377 12.4078C65.1377 11.0357 64.8731 9.98739 64.3439 9.26297C63.8147 8.53003 63.0507 8.16355 62.0521 8.16355ZM62.0521 4.89087C64.5189 4.89087 66.4437 5.55563 67.8264 6.88516C69.2177 8.21469 69.9134 10.0556 69.9134 12.4078C69.9134 14.7601 69.2177 16.601 67.8264 17.9305C66.4437 19.26 64.5189 19.9248 62.0521 19.9248C59.5767 19.9248 57.6392 19.26 56.2393 17.9305C54.848 16.601 54.1523 14.7601 54.1523 12.4078C54.1523 10.0556 54.848 8.21469 56.2393 6.88516C57.6392 5.55563 59.5767 4.89087 62.0521 4.89087Z" fill="white"/>
<path d="M86.5323 7.61384C87.1127 6.72749 87.7998 6.05421 88.5937 5.59399C89.396 5.12524 90.2752 4.89087 91.2312 4.89087C92.8785 4.89087 94.1333 5.39797 94.9954 6.41216C95.8575 7.42635 96.2885 8.90076 96.2885 10.8354V19.5541H91.6793V12.0882C91.6878 11.9775 91.6921 11.8624 91.6921 11.7431C91.7006 11.6238 91.7049 11.4533 91.7049 11.2317C91.7049 10.2175 91.5555 9.48456 91.2567 9.03286C90.958 8.57264 90.4757 8.34253 89.8099 8.34253C88.9393 8.34253 88.265 8.70048 87.787 9.41638C87.3175 10.1323 87.0743 11.1678 87.0572 12.5229V19.5541H82.448V12.0882C82.448 10.503 82.3114 9.48456 82.0383 9.03286C81.7651 8.57264 81.2786 8.34253 80.5787 8.34253C79.6995 8.34253 79.0209 8.70474 78.5429 9.42916C78.0649 10.1451 77.8259 11.1721 77.8259 12.5101V19.5541H73.2167V5.23604H77.8259V7.3326C78.3893 6.52295 79.0337 5.91358 79.7592 5.5045C80.4933 5.09541 81.2999 4.89087 82.1791 4.89087C83.1692 4.89087 84.0441 5.1295 84.8038 5.60677C85.5635 6.08404 86.1396 6.75306 86.5323 7.61384Z" fill="white"/>
<path d="M114.073 1.06857V5.10828C113.023 4.63954 111.998 4.28585 111 4.04722C110.001 3.80859 109.058 3.68927 108.17 3.68927C106.992 3.68927 106.122 3.8512 105.558 4.17506C104.995 4.49892 104.713 5.00175 104.713 5.68356C104.713 6.19492 104.901 6.59548 105.277 6.88525C105.661 7.1665 106.352 7.40939 107.351 7.61393L109.451 8.0358C111.576 8.46193 113.087 9.10965 113.983 9.97896C114.879 10.8483 115.327 12.0841 115.327 13.6863C115.327 15.7914 114.7 17.3596 113.445 18.3908C112.199 19.4135 110.291 19.9249 107.722 19.9249C106.51 19.9249 105.294 19.8098 104.073 19.5797C102.853 19.3496 101.632 19.0087 100.411 18.557V14.4022C101.632 15.0499 102.81 15.54 103.945 15.8724C105.089 16.1962 106.19 16.3581 107.248 16.3581C108.324 16.3581 109.148 16.1792 109.719 15.8212C110.291 15.4633 110.577 14.9519 110.577 14.2871C110.577 13.6906 110.381 13.2303 109.988 12.9065C109.604 12.5826 108.832 12.2929 107.671 12.0372L105.763 11.6153C103.851 11.2062 102.451 10.5542 101.564 9.65936C100.684 8.76449 100.245 7.55854 100.245 6.04151C100.245 4.14097 100.859 2.67934 102.089 1.65663C103.318 0.633915 105.085 0.122559 107.389 0.122559C108.439 0.122559 109.519 0.203522 110.628 0.365451C111.738 0.518858 112.886 0.753232 114.073 1.06857Z" fill="white"/>
<path d="M124.456 1.17065V5.23593H129.181V8.50862H124.456V14.581C124.456 15.2457 124.588 15.6974 124.853 15.9361C125.118 16.1662 125.643 16.2812 126.428 16.2812H128.784V19.5539H124.853C123.043 19.5539 121.759 19.1789 120.999 18.4289C120.248 17.6704 119.873 16.3878 119.873 14.581V8.50862H117.594V5.23593H119.873V1.17065H124.456Z" fill="white"/>
<path d="M142.637 9.13513C142.236 8.94763 141.835 8.81127 141.434 8.72605C141.041 8.6323 140.644 8.58542 140.243 8.58542C139.065 8.58542 138.156 8.96468 137.516 9.72319C136.884 10.4732 136.568 11.5513 136.568 12.9576V19.5541H131.985V5.23604H136.568V7.58828C137.157 6.65079 137.831 5.96898 138.591 5.54285C139.359 5.1082 140.277 4.89087 141.344 4.89087C141.498 4.89087 141.664 4.89939 141.843 4.91644C142.022 4.92494 142.283 4.95051 142.624 4.99313L142.637 9.13513Z" fill="white"/>
<path d="M151.343 13.111C150.387 13.111 149.666 13.2729 149.18 13.5968C148.702 13.9206 148.463 14.3979 148.463 15.0286C148.463 15.6081 148.655 16.064 149.039 16.3964C149.431 16.7203 149.973 16.8822 150.665 16.8822C151.527 16.8822 152.252 16.5754 152.841 15.9618C153.43 15.3396 153.725 14.5641 153.725 13.6351V13.111H151.343ZM158.347 11.3851V19.5541H153.725V17.4319C153.11 18.3012 152.419 18.9362 151.651 19.3367C150.882 19.7288 149.948 19.9248 148.847 19.9248C147.362 19.9248 146.154 19.4944 145.223 18.6336C144.301 17.7643 143.841 16.6393 143.841 15.2587C143.841 13.5797 144.417 12.3482 145.569 11.5641C146.73 10.78 148.548 10.388 151.023 10.388H153.725V10.03C153.725 9.30559 153.439 8.77718 152.867 8.4448C152.295 8.1039 151.403 7.93344 150.191 7.93344C149.209 7.93344 148.296 8.03145 147.451 8.22747C146.606 8.42349 145.821 8.71752 145.095 9.10957V5.61955C146.077 5.38092 147.063 5.20194 148.053 5.08263C149.043 4.95479 150.033 4.89087 151.023 4.89087C153.61 4.89087 155.475 5.40223 156.618 6.42494C157.771 7.43913 158.347 9.09252 158.347 11.3851Z" fill="white"/>
<path d="M167.194 17.4831V25H162.61V5.23604H167.194V7.3326C167.826 6.49738 168.526 5.88375 169.294 5.49171C170.062 5.09115 170.945 4.89087 171.944 4.89087C173.711 4.89087 175.162 5.59398 176.297 7.00022C177.433 8.39792 178 10.2005 178 12.4078C178 14.6152 177.433 16.422 176.297 17.8282C175.162 19.2259 173.711 19.9248 171.944 19.9248C170.945 19.9248 170.062 19.7288 169.294 19.3367C168.526 18.9362 167.826 18.3183 167.194 17.4831ZM170.241 8.21469C169.26 8.21469 168.504 8.5769 167.975 9.30132C167.454 10.0173 167.194 11.0528 167.194 12.4078C167.194 13.7629 167.454 14.8027 167.975 15.5271C168.504 16.243 169.26 16.601 170.241 16.601C171.223 16.601 171.97 16.243 172.482 15.5271C173.003 14.8112 173.263 13.7715 173.263 12.4078C173.263 11.0442 173.003 10.0045 172.482 9.28854C171.97 8.57264 171.223 8.21469 170.241 8.21469Z" fill="white"/>
</g>
<defs>
<clipPath id="clip0">
<rect width="178" height="25" fill="white"/>
</clipPath>
</defs>
</svg>
