<svg width="178" height="25" viewBox="0 0 178 25" fill="none" xmlns="http://www.w3.org/2000/svg">
<path d="M16.1206 9.47235C15.7691 9.57778 15.4252 9.70159 15.1079 9.90103C14.7713 10.1127 14.6187 10.4316 14.4858 10.7762C14.4744 10.8589 14.469 10.9425 14.4407 11.0242C14.4026 11.1349 14.4176 11.4562 14.3778 11.6366C14.3766 11.642 14.3743 11.6461 14.3729 11.6502C14.3729 11.6555 14.3696 11.6623 14.3694 11.6678C14.3729 11.695 14.3846 11.7154 14.3845 11.7455C14.3836 11.7901 14.3831 11.8339 14.3823 11.8782C14.3815 11.8873 14.3786 11.8943 14.3773 11.9019C14.4007 11.9594 14.4121 12.0184 14.4137 12.0798L14.5359 12.2348C14.6334 12.3644 14.7313 12.4935 14.8263 12.623C15.0063 12.8672 15.178 13.1112 15.3477 13.3535C15.4512 13.5022 15.5574 13.6503 15.6582 13.7981C15.8738 14.116 16.0788 14.4321 16.2767 14.7452C16.3171 14.8075 16.3613 14.8714 16.4002 14.9341C16.6429 15.323 16.8682 15.7055 17.0828 16.0832C17.1624 16.223 17.2336 16.3597 17.3089 16.4989C17.4403 16.7402 17.5691 16.981 17.688 17.2166C17.7947 17.4266 17.8967 17.6359 17.9937 17.8394C18.024 17.9065 18.0582 17.9734 18.0876 18.0391C18.2224 18.3334 18.347 18.6232 18.4591 18.9035C18.464 18.9141 18.4669 18.9241 18.4714 18.9351C18.576 19.1982 18.6677 19.4543 18.7518 19.7044C18.7771 19.7763 18.7984 19.8469 18.8212 19.9191C18.8706 20.0725 18.9122 20.2223 18.9537 20.3701C19.0128 20.585 19.0611 20.7932 19.1025 20.9942C19.1188 21.0792 19.1405 21.1653 19.1538 21.2474C19.1998 21.5089 19.2308 21.7593 19.2428 21.9938C19.2428 22.0111 19.2471 22.0284 19.2477 22.0442C19.2483 22.0588 19.2457 22.0719 19.2469 22.0857C19.2495 22.1499 19.2423 22.206 19.2413 22.268C19.2367 22.268 19.2317 22.2663 19.2273 22.2653C19.1926 22.2557 19.5281 22.3544 19.7742 22.4047C19.7956 22.4089 19.8167 22.4127 19.8415 22.417C20.0267 22.452 20.215 22.4745 20.3999 22.4842L20.4951 22.4848C20.6716 22.491 20.8392 22.4813 20.9902 22.458C21.0139 22.4541 21.0362 22.45 21.0649 22.4431C21.2288 22.4137 21.3765 22.3722 21.5024 22.3192L21.5449 22.2975C21.6974 22.2281 21.824 22.1513 21.9316 22.0622L21.9516 22.0853L21.9321 22.0609C21.9273 22.0649 21.9208 22.0679 21.9171 22.0705C23.1007 20.0018 21.0732 14.799 17.014 9.54626C16.9069 9.54272 16.7962 9.52674 16.6788 9.48183C16.493 9.47492 16.3071 9.47334 16.1206 9.47235ZM17.148 12.6499C17.336 12.6424 17.5455 12.765 17.6757 12.9775C17.8489 13.2609 17.8148 13.5968 17.5987 13.7293C17.383 13.8602 17.0668 13.7371 16.8938 13.454C16.72 13.1704 16.7549 12.8343 16.971 12.7025C17.0251 12.6695 17.0854 12.6525 17.148 12.6499ZM18.3319 14.4048C18.5201 14.4103 18.7209 14.5471 18.8354 14.7678C18.989 15.0622 18.9303 15.3956 18.7063 15.5111C18.4798 15.6295 18.1753 15.4836 18.0229 15.188C17.8687 14.8948 17.927 14.5611 18.1514 14.4449C18.2077 14.4158 18.2691 14.403 18.3319 14.4048ZM19.3276 16.2939C19.5288 16.298 19.7372 16.4618 19.8345 16.7138C19.9555 17.0225 19.8612 17.3478 19.6249 17.4382C19.3886 17.5311 19.0997 17.3542 18.9792 17.0443C18.859 16.7353 18.9542 16.4098 19.1909 16.3174C19.2351 16.3004 19.2811 16.2929 19.3276 16.2939ZM20.1713 18.1278C20.2916 18.1267 20.4141 18.1782 20.518 18.2735C20.622 18.3688 20.7009 18.5021 20.7416 18.6507C20.7883 18.8216 20.7808 18.9997 20.7208 19.1458C20.6607 19.292 20.5531 19.3943 20.4215 19.4301C20.3563 19.4479 20.2872 19.4488 20.2181 19.4329C20.1491 19.4169 20.0814 19.3844 20.0189 19.3371C19.9565 19.2899 19.9005 19.2288 19.8542 19.1575C19.8079 19.0861 19.7722 19.0058 19.7491 18.9212C19.7023 18.7504 19.7098 18.5723 19.7699 18.4262C19.8299 18.28 19.9376 18.1777 20.0692 18.1418C20.1023 18.1328 20.1365 18.1281 20.1713 18.1278Z" fill="#BE2B2B"/>
<path d="M3.35263 0.548703L3.37709 0.510503C3.3911 0.484626 3.40686 0.460398 3.42183 0.437129C3.51764 0.304464 3.60945 0.205493 3.70678 0.122258C5.78131 -0.58965 9.96324 1.85941 14.0569 6.11552C14.2824 7.73633 12.9375 9.03617 11.6 8.7466C11.5963 8.74113 11.593 8.73843 11.5888 8.73435C11.3741 8.50702 11.1608 8.28903 10.9452 8.0714C10.8366 7.96189 10.7277 7.84704 10.6203 7.74049C10.2981 7.42225 9.97677 7.11523 9.65721 6.8222C9.54706 6.72171 9.43769 6.62965 9.32763 6.53133C9.12201 6.34742 8.91497 6.16359 8.71078 5.98974C8.56816 5.86995 8.42882 5.75986 8.28758 5.64549C8.09849 5.49163 7.90959 5.33888 7.72412 5.19639C7.59357 5.09549 7.46385 5.00058 7.33442 4.90578C7.13922 4.76242 6.94637 4.62393 6.75614 4.49357C6.63208 4.40773 6.50824 4.32386 6.38587 4.2444C6.22786 4.14091 6.07425 4.04409 5.92006 3.95007C5.79514 3.87409 5.67071 3.79988 5.54903 3.72981C5.39755 3.64301 5.25027 3.5638 5.10294 3.48711C4.98679 3.42647 4.86819 3.365 4.75425 3.30958C4.60966 3.24004 4.47045 3.18034 4.33031 3.12174C4.22191 3.07573 4.11173 3.02823 4.00589 2.98881C3.8702 2.93746 3.73853 2.89736 3.60801 2.85724C3.50899 2.82753 3.40951 2.79359 3.31464 2.77099C3.20949 2.74416 3.1132 2.73184 3.01341 2.7139L3.01301 2.71798C2.99493 2.53436 2.98381 2.35387 2.98145 2.21838C2.98156 2.16746 2.9822 2.11489 2.98415 2.06319L2.98938 1.96695C2.99428 1.83881 2.99985 1.71082 3.01517 1.58911C3.02615 1.5119 3.03971 1.43641 3.05416 1.36068C3.07561 1.25226 3.10038 1.148 3.13267 1.0496C3.15534 0.972659 3.18365 0.89861 3.21259 0.828668C3.25435 0.725444 3.30206 0.632664 3.35263 0.548703Z" fill="#BE2B2B"/>
<path d="M0.356784 2.87204C0.379065 2.83331 0.400586 2.79305 0.426141 2.75788C0.438805 2.73844 0.448725 2.71613 0.461352 2.69805C0.531368 2.60565 0.609706 2.5213 0.697803 2.44542C0.708432 2.43584 0.719764 2.42598 0.732726 2.41571L3.14769 0.417694C3.15291 0.415022 3.15613 0.412199 3.16187 0.410767C3.14853 0.416261 3.14105 0.430765 3.12764 0.436644C3.07435 0.526724 3.02295 0.624894 2.97899 0.733758C2.9472 0.810004 2.91548 0.891672 2.88997 0.97499C2.85569 1.08328 2.8276 1.19645 2.80569 1.31449C2.78932 1.39389 2.77563 1.47481 2.76397 1.55912C2.74911 1.6878 2.74104 1.82331 2.73514 1.95928L2.73143 2.05551C2.72957 2.1104 2.72824 2.16448 2.72773 2.22413C2.73178 2.39836 2.74191 2.62503 2.77051 2.86666C2.77221 2.88937 2.77693 2.91594 2.78149 2.94099L2.78639 2.97589C2.81274 3.18931 2.85151 3.41701 2.90559 3.66968L2.91066 3.70116C2.91403 3.72265 2.91825 3.74276 2.92264 3.76235C2.96749 3.96872 3.0275 4.19966 3.1156 4.50478C3.1354 4.57487 3.15882 4.64635 3.18024 4.71756L3.20843 4.80709C3.26832 4.99862 3.33427 5.19528 3.40684 5.39352C3.4404 5.4921 3.47455 5.59096 3.51303 5.69176C3.60754 5.93985 3.71139 6.19353 3.82077 6.4528L3.84281 6.50551C3.85529 6.5385 3.86852 6.57026 3.88461 6.60366C4.00404 6.87858 4.14275 7.17744 4.30998 7.51691C4.52757 7.96179 4.73371 8.35838 4.93876 8.72939C5.13937 9.09005 5.35827 9.46517 5.66047 9.9594C5.71349 10.0465 5.77041 10.135 5.82672 10.2225L5.92427 10.3783C6.08918 10.6373 6.25599 10.8968 6.43069 11.1575C6.50548 11.2707 6.58343 11.3846 6.66307 11.4979L6.75226 11.6248C6.92989 11.8843 7.11302 12.1424 7.3034 12.3999C7.37202 12.4951 7.44264 12.5911 7.51531 12.688L7.58401 12.782C8.07052 13.4283 8.45799 13.9238 8.84296 14.3874C9.09733 14.692 9.35279 14.9856 9.60959 15.2771C9.80827 15.5021 10.0074 15.72 10.2073 15.9383C10.3465 16.0914 10.482 16.2426 10.6199 16.3854C10.8292 16.6054 11.0379 16.8182 11.247 17.0287L11.4168 17.199C11.4909 17.2726 11.5633 17.3468 11.6373 17.4182C11.8739 17.6504 12.1109 17.8724 12.349 18.092L12.4814 18.2159C12.541 18.2736 12.603 18.3298 12.6613 18.3848C12.9162 18.6159 13.1872 18.8492 13.5393 19.1428L13.5789 19.1796C13.614 19.2096 13.6499 19.2414 13.6838 19.2708C14.0215 19.5469 14.3638 19.817 14.7309 20.0912C14.7913 20.1377 14.8508 20.1786 14.9104 20.2205L15.0166 20.298C15.2571 20.4725 15.4987 20.6401 15.7314 20.7992C15.9795 20.9648 16.224 21.1233 16.4638 21.2684L16.5724 21.3303C16.8586 21.5011 17.1162 21.6477 17.3615 21.7741C17.375 21.7821 17.3966 21.7923 17.4178 21.8016C17.7113 21.952 17.961 22.0696 18.1921 22.1695L18.2223 22.1831C18.4759 22.2883 18.7179 22.3762 18.9603 22.4547L19.0372 22.4808C19.2533 22.5475 19.4679 22.6032 19.6942 22.6492C19.7465 22.6615 19.7725 22.6651 19.7981 22.6696C19.99 22.7052 20.1904 22.7281 20.3882 22.7375L20.467 22.7402C20.6804 22.7458 20.8615 22.7362 21.0291 22.7095C21.0587 22.7055 21.0854 22.6998 21.1139 22.694C21.2563 22.6697 21.382 22.6266 21.5044 22.5825L19.109 24.5642C18.9731 24.6764 18.8196 24.7629 18.6528 24.8307C18.5978 24.8538 18.5332 24.8619 18.4748 24.88C18.3574 24.9145 18.2396 24.9502 18.1092 24.9672C18.0319 24.9769 17.9461 24.9741 17.8648 24.9769C17.7405 24.9838 17.617 24.9878 17.4855 24.9764C17.391 24.9695 17.2915 24.9532 17.1932 24.9391C17.0605 24.9191 16.9271 24.8977 16.7875 24.8653C16.6802 24.8409 16.5696 24.8082 16.4582 24.7751C16.3158 24.7333 16.1718 24.6887 16.0228 24.6354C15.9059 24.5935 15.7873 24.5468 15.6675 24.4981C15.5114 24.4356 15.3548 24.3656 15.1933 24.2909C15.0722 24.2344 14.95 24.1747 14.8262 24.111C14.6548 24.0249 14.4807 23.9294 14.3036 23.8296C14.184 23.7619 14.0643 23.6951 13.9417 23.6225C13.7457 23.5049 13.5459 23.3773 13.3453 23.2461C13.2683 23.196 13.1948 23.1548 13.1174 23.1024C13.0864 23.0821 13.0539 23.0559 13.0223 23.0361C12.7727 22.8646 12.5189 22.6818 12.262 22.4931C12.1764 22.4297 12.0923 22.3715 12.0056 22.3067C11.7173 22.0868 11.4256 21.8539 11.131 21.6125C11.0738 21.565 11.0187 21.5239 10.9611 21.4765C10.8211 21.3594 10.6794 21.2273 10.5383 21.105C10.3493 20.9414 10.1609 20.7799 9.9709 20.6078C9.84106 20.4899 9.71071 20.3636 9.5811 20.2412C9.37505 20.0474 9.16855 19.8561 8.96148 19.6514C8.9233 19.6151 8.88568 19.5817 8.84841 19.5434C8.73237 19.428 8.61587 19.302 8.49943 19.1845C8.31398 18.9964 8.12929 18.8086 7.94452 18.6124C7.79187 18.4511 7.641 18.2844 7.48931 18.1187C7.30855 17.9198 7.12648 17.72 6.94591 17.5152C6.88492 17.4451 6.82232 17.3802 6.76059 17.3094C6.56179 17.0784 6.36139 16.8432 6.16353 16.6039C5.72519 16.0749 5.31423 15.5464 4.91577 15.0171C4.87114 14.9563 4.81976 14.8976 4.77544 14.837C4.71719 14.7609 4.6678 14.6851 4.6111 14.6085C4.43719 14.3695 4.26734 14.1323 4.10186 13.8939C3.97851 13.7179 3.85519 13.5426 3.73717 13.3679C3.5769 13.1311 3.42598 12.8968 3.27649 12.6624C3.19868 12.542 3.1137 12.4204 3.03894 12.3009C3.01475 12.2615 2.9951 12.2254 2.97039 12.187C2.75829 11.8411 2.55687 11.5016 2.36508 11.1641C2.326 11.0964 2.28262 11.0282 2.24523 10.96C2.02207 10.5617 1.81627 10.1698 1.62507 9.78585C1.61072 9.7593 1.59582 9.73136 1.58218 9.70563C1.44242 9.42233 1.3122 9.14502 1.19007 8.87064C1.17206 8.82915 1.15636 8.78877 1.1369 8.74661C1.02191 8.48275 0.91416 8.22454 0.815536 7.97009C0.777261 7.87426 0.7443 7.78289 0.709782 7.68876C0.634817 7.48808 0.565814 7.28968 0.503535 7.0957C0.472326 7.00205 0.441183 6.90658 0.413433 6.81371C0.397227 6.75978 0.376939 6.70309 0.361326 6.65074C0.339773 6.576 0.32983 6.51024 0.310029 6.43695C0.251154 6.21907 0.199604 6.00587 0.157524 5.80107C0.134197 5.68511 0.112387 5.57123 0.0939887 5.4606C0.0614107 5.25797 0.039502 5.06499 0.0247655 4.87624C0.018191 4.81313 0.00304272 4.74111 0.000829836 4.67923C-0.00118725 4.64651 0.00180891 4.61871 0.001221 4.58819C-0.00148813 4.49852 0.00149017 4.41419 0.00307784 4.32819C0.00578697 4.19703 0.0108337 4.06835 0.0239566 3.94572C0.0323962 3.86522 0.0455781 3.78787 0.0600961 3.71043C0.0709098 3.6491 0.0746115 3.58243 0.0889269 3.52411C0.0995558 3.47632 0.120051 3.43841 0.132678 3.39391C0.156513 3.31436 0.183197 3.23853 0.21343 3.16567C0.230393 3.12241 0.239425 3.07341 0.259039 3.03205C0.287194 2.974 0.323532 2.92437 0.356784 2.87204Z" fill="#DF3636"/>
<path d="M13.1409 4.62943L12.9202 4.83976L13.8491 5.77383C14.2017 6.1327 14.3977 6.61629 14.3943 7.11897C14.391 7.62166 14.1886 8.10259 13.8313 8.45675C13.474 8.81089 12.9908 9.00948 12.4874 9.00915C11.9839 9.00882 11.5011 8.80959 11.1442 8.45498L10.1629 7.46777L9.94226 7.6781L10.9279 8.66923C11.3416 9.08114 11.9019 9.31275 12.4862 9.31339C13.0704 9.31404 13.6312 9.08368 14.0458 8.67268C14.4603 8.26168 14.6951 7.70355 14.6986 7.12027C14.7022 6.537 14.4744 5.97603 14.065 5.55996L13.1409 4.62943Z" fill="white"/>
<path d="M13.0809 7.91043L13.3926 7.63783L14.0936 8.43679L13.782 8.7094L13.0809 7.91043Z" fill="white"/>
<path d="M26.2665 0.467621H39.5693V4.18774H31.1958V7.74167H39.0699V11.4618H31.1958V19.554H26.2665V0.467621Z" fill="white"/>
<path d="M52.9489 9.13516C52.5477 8.94766 52.1465 8.8113 51.7453 8.72608C51.3527 8.63233 50.9558 8.58545 50.5546 8.58545C49.3767 8.58545 48.4677 8.96471 47.8275 9.72322C47.1958 10.4732 46.88 11.5513 46.88 12.9576V19.5541H42.2964V5.23607H46.88V7.58831C47.469 6.65082 48.1433 5.96901 48.903 5.54288C49.6712 5.10823 50.5888 4.8909 51.6557 4.8909C51.8094 4.8909 51.9758 4.89942 52.155 4.91647C52.3343 4.92497 52.5946 4.95054 52.9361 4.99316L52.9489 9.13516Z" fill="white"/>
<path d="M62.0521 8.16358C61.0363 8.16358 60.2596 8.53006 59.7218 9.263C59.1926 9.98742 58.928 11.0357 58.928 12.4078C58.928 13.78 59.1926 14.8325 59.7218 15.5655C60.2596 16.2899 61.0363 16.6521 62.0521 16.6521C63.0507 16.6521 63.8147 16.2899 64.3439 15.5655C64.8731 14.8325 65.1377 13.78 65.1377 12.4078C65.1377 11.0357 64.8731 9.98742 64.3439 9.263C63.8147 8.53006 63.0507 8.16358 62.0521 8.16358ZM62.0521 4.8909C64.5189 4.8909 66.4437 5.55566 67.8264 6.88519C69.2177 8.21472 69.9134 10.0556 69.9134 12.4078C69.9134 14.7601 69.2177 16.601 67.8264 17.9305C66.4437 19.26 64.5189 19.9248 62.0521 19.9248C59.5767 19.9248 57.6392 19.26 56.2393 17.9305C54.848 16.601 54.1523 14.7601 54.1523 12.4078C54.1523 10.0556 54.848 8.21472 56.2393 6.88519C57.6392 5.55566 59.5767 4.8909 62.0521 4.8909Z" fill="white"/>
<path d="M86.5323 7.61387C87.1127 6.72752 87.7998 6.05424 88.5937 5.59402C89.396 5.12527 90.2752 4.8909 91.2312 4.8909C92.8785 4.8909 94.1333 5.398 94.9954 6.41219C95.8575 7.42638 96.2885 8.90079 96.2885 10.8354V19.5541H91.6793V12.0882C91.6878 11.9775 91.6921 11.8624 91.6921 11.7431C91.7006 11.6238 91.7049 11.4533 91.7049 11.2317C91.7049 10.2175 91.5555 9.48459 91.2567 9.03289C90.958 8.57267 90.4757 8.34256 89.8099 8.34256C88.9393 8.34256 88.265 8.70051 87.787 9.41641C87.3175 10.1323 87.0743 11.1678 87.0572 12.5229V19.5541H82.448V12.0882C82.448 10.503 82.3114 9.48459 82.0383 9.03289C81.7651 8.57267 81.2786 8.34256 80.5787 8.34256C79.6995 8.34256 79.0209 8.70477 78.5429 9.42919C78.0649 10.1451 77.8259 11.1721 77.8259 12.5101V19.5541H73.2167V5.23607H77.8259V7.33263C78.3893 6.52298 79.0337 5.91361 79.7592 5.50453C80.4933 5.09544 81.2999 4.8909 82.1791 4.8909C83.1692 4.8909 84.0441 5.12953 84.8038 5.6068C85.5635 6.08407 86.1396 6.75309 86.5323 7.61387H86.5323Z" fill="white"/>
<path d="M114.073 1.06848V5.10819C113.023 4.63945 111.998 4.28576 111 4.04713C110.001 3.8085 109.058 3.68918 108.17 3.68918C106.992 3.68918 106.122 3.85111 105.558 4.17497C104.995 4.49883 104.713 5.00166 104.713 5.68347C104.713 6.19483 104.901 6.59539 105.277 6.88516C105.661 7.16641 106.352 7.4093 107.351 7.61384L109.451 8.03571C111.576 8.46184 113.087 9.10956 113.983 9.97887C114.879 10.8482 115.327 12.084 115.327 13.6862C115.327 15.7913 114.7 17.3595 113.445 18.3907C112.199 19.4134 110.291 19.9248 107.722 19.9248C106.51 19.9248 105.294 19.8097 104.073 19.5796C102.853 19.3495 101.632 19.0086 100.411 18.5569V14.4021C101.632 15.0498 102.81 15.5399 103.945 15.8723C105.089 16.1961 106.19 16.358 107.248 16.358C108.324 16.358 109.148 16.1791 109.719 15.8211C110.291 15.4632 110.577 14.9518 110.577 14.287C110.577 13.6905 110.381 13.2302 109.988 12.9064C109.604 12.5825 108.832 12.2928 107.671 12.0371L105.763 11.6152C103.851 11.2061 102.451 10.5541 101.564 9.65927C100.684 8.7644 100.245 7.55845 100.245 6.04142C100.245 4.14088 100.859 2.67925 102.089 1.65654C103.318 0.633823 105.085 0.122467 107.389 0.122467C108.439 0.122467 109.519 0.20343 110.628 0.365359C111.738 0.518766 112.886 0.75314 114.073 1.06848Z" fill="white"/>
<path d="M124.456 1.17075V5.23603H129.181V8.50872H124.456V14.5811C124.456 15.2458 124.588 15.6975 124.853 15.9362C125.118 16.1663 125.643 16.2813 126.428 16.2813H128.784V19.554H124.853C123.043 19.554 121.759 19.179 120.999 18.429C120.248 17.6705 119.873 16.3879 119.873 14.5811V8.50872H117.594V5.23603H119.873V1.17075H124.456Z" fill="white"/>
<path d="M142.637 9.13516C142.236 8.94766 141.835 8.8113 141.434 8.72608C141.041 8.63233 140.644 8.58545 140.243 8.58545C139.065 8.58545 138.156 8.96471 137.516 9.72322C136.884 10.4732 136.568 11.5513 136.568 12.9576V19.5541H131.985V5.23607H136.568V7.58831C137.157 6.65082 137.831 5.96901 138.591 5.54288C139.359 5.10823 140.277 4.8909 141.344 4.8909C141.498 4.8909 141.664 4.89942 141.843 4.91647C142.022 4.92497 142.283 4.95054 142.624 4.99316L142.637 9.13516Z" fill="white"/>
<path d="M151.343 13.111C150.387 13.111 149.666 13.2729 149.18 13.5968C148.702 13.9206 148.463 14.3979 148.463 15.0286C148.463 15.6081 148.655 16.064 149.039 16.3964C149.431 16.7203 149.973 16.8822 150.665 16.8822C151.527 16.8822 152.252 16.5754 152.841 15.9618C153.43 15.3396 153.725 14.5641 153.725 13.6351V13.111H151.343ZM158.347 11.3851V19.5541H153.725V17.4319C153.11 18.3012 152.419 18.9362 151.651 19.3367C150.882 19.7288 149.948 19.9248 148.847 19.9248C147.362 19.9248 146.154 19.4944 145.223 18.6336C144.301 17.7643 143.841 16.6393 143.841 15.2587C143.841 13.5797 144.417 12.3482 145.569 11.5641C146.73 10.78 148.548 10.388 151.023 10.388H153.725V10.03C153.725 9.30562 153.439 8.77721 152.867 8.44483C152.295 8.10393 151.403 7.93347 150.191 7.93347C149.209 7.93347 148.296 8.03148 147.451 8.2275C146.606 8.42352 145.821 8.71755 145.095 9.1096V5.61958C146.077 5.38095 147.063 5.20197 148.053 5.08266C149.043 4.95482 150.033 4.8909 151.023 4.8909C153.61 4.8909 155.475 5.40226 156.618 6.42497C157.771 7.43916 158.347 9.09255 158.347 11.3851Z" fill="white"/>
<path d="M167.194 17.4831V25H162.61V5.23607H167.194V7.33263C167.826 6.49741 168.526 5.88378 169.294 5.49174C170.062 5.09118 170.945 4.8909 171.944 4.8909C173.711 4.8909 175.162 5.59401 176.297 7.00025C177.433 8.39795 178 10.2005 178 12.4078C178 14.6152 177.433 16.422 176.297 17.8282C175.162 19.2259 173.711 19.9248 171.944 19.9248C170.945 19.9248 170.062 19.7288 169.294 19.3367C168.526 18.9362 167.826 18.3183 167.194 17.4831ZM170.241 8.21472C169.26 8.21472 168.504 8.57693 167.975 9.30135C167.454 10.0173 167.194 11.0528 167.194 12.4078C167.194 13.7629 167.454 14.8027 167.975 15.5271C168.504 16.243 169.26 16.601 170.241 16.601C171.223 16.601 171.97 16.243 172.482 15.5271C173.003 14.8112 173.263 13.7715 173.263 12.4078C173.263 11.0442 173.003 10.0045 172.482 9.28857C171.97 8.57267 171.223 8.21472 170.241 8.21472Z" fill="white"/>
</svg>
