<svg style="fill: white; stroke: white;" width="23" height="25" viewBox="0 0 23 25" fill="none" xmlns="http://www.w3.org/2000/svg">
<path d="M15.5799 23.4019V19.3817C15.6189 18.8863 15.552 18.3883 15.3836 17.9209C15.2153 17.4534 14.9493 17.0271 14.6035 16.6704C17.8653 16.3068 21.2934 15.0706 21.2934 9.39867C21.2931 7.9483 20.7352 6.55356 19.7352 5.50312C20.2087 4.23421 20.1753 2.83165 19.6417 1.58679C19.6417 1.58679 18.4159 1.22321 15.5799 3.12424C13.199 2.47895 10.6892 2.47895 8.30825 3.12424C5.47229 1.22321 4.24649 1.58679 4.24649 1.58679C3.71293 2.83165 3.67945 4.23421 4.153 5.50312C3.14548 6.56136 2.58701 7.9687 2.59478 9.42983C2.59478 15.0602 6.02286 16.2964 9.28473 16.7015C8.94296 17.0547 8.67938 17.4759 8.51114 17.9376C8.3429 18.3994 8.27377 18.8914 8.30825 19.3817V23.4019M8.30825 20.2854C3.11419 21.8436 3.11419 17.6884 1.03656 17.169L8.30825 20.2854Z" stroke="black" stroke-width="2" stroke-linecap="round" stroke-linejoin="round"/>
</svg>
