<svg width="177" height="168" viewBox="0 0 177 168" fill="none" xmlns="http://www.w3.org/2000/svg">
<path d="M128.285 64.2914C125.503 64.9962 122.78 65.8241 120.269 67.1575C117.604 68.5726 116.396 70.7052 115.343 73.0089C115.254 73.5619 115.211 74.1206 114.987 74.667C114.685 75.4074 114.804 77.5554 114.489 78.7614C114.479 78.798 114.461 78.8253 114.45 78.8526C114.45 78.8881 114.424 78.9333 114.422 78.97C114.45 79.1522 114.543 79.2882 114.541 79.4895C114.535 79.7879 114.531 80.0807 114.525 80.3773C114.518 80.4376 114.495 80.4848 114.485 80.5353C114.67 80.92 114.76 81.3146 114.773 81.7246L115.741 82.7611C116.512 83.6276 117.288 84.491 118.04 85.3569C119.464 86.9896 120.824 88.6208 122.167 90.2411C122.986 91.2352 123.827 92.2253 124.625 93.2136C126.331 95.3393 127.954 97.4521 129.521 99.5456C129.841 99.9623 130.191 100.389 130.498 100.809C132.42 103.409 134.204 105.967 135.903 108.492C136.533 109.426 137.096 110.34 137.692 111.271C138.733 112.884 139.752 114.494 140.694 116.07C141.538 117.474 142.345 118.873 143.114 120.234C143.353 120.682 143.624 121.13 143.857 121.569C144.924 123.537 145.91 125.474 146.798 127.349C146.836 127.419 146.859 127.486 146.895 127.56C147.723 129.319 148.449 131.031 149.115 132.703C149.315 133.184 149.484 133.656 149.664 134.139C150.055 135.164 150.384 136.166 150.713 137.154C151.181 138.591 151.563 139.983 151.891 141.327C152.02 141.895 152.191 142.471 152.297 143.02C152.661 144.769 152.906 146.442 153.001 148.01C153.001 148.126 153.035 148.242 153.04 148.348C153.045 148.445 153.025 148.532 153.034 148.625C153.055 149.054 152.997 149.429 152.989 149.844C152.953 149.844 152.913 149.832 152.879 149.826C152.604 149.761 155.26 150.421 157.208 150.757C157.378 150.785 157.545 150.811 157.741 150.839C159.207 151.074 160.698 151.224 162.162 151.289L162.915 151.293C164.312 151.334 165.639 151.27 166.835 151.114C167.022 151.088 167.199 151.061 167.426 151.014C168.723 150.818 169.892 150.54 170.889 150.186L171.226 150.04C172.433 149.577 173.435 149.064 174.287 148.468L174.445 148.622L174.291 148.459C174.253 148.486 174.201 148.505 174.172 148.523C183.542 134.692 167.492 99.9058 135.358 64.7855C134.51 64.7619 133.633 64.655 132.704 64.3548C131.233 64.3086 129.763 64.2971 128.286 64.2905L128.285 64.2914ZM136.419 85.5369C137.907 85.4862 139.565 86.306 140.596 87.7272C141.967 89.6215 141.697 91.8673 139.987 92.7533C138.279 93.6288 135.775 92.8057 134.406 90.9126C133.03 89.0167 133.307 86.7697 135.017 85.8883C135.446 85.6676 135.923 85.5538 136.419 85.5369H136.419ZM145.79 97.27C147.281 97.3066 148.87 98.2213 149.776 99.6969C150.992 101.665 150.528 103.895 148.754 104.666C146.961 105.458 144.551 104.483 143.344 102.506C142.124 100.546 142.585 98.3148 144.362 97.5378C144.808 97.3434 145.294 97.2578 145.79 97.27V97.27ZM153.673 109.9C155.266 109.928 156.916 111.023 157.685 112.708C158.643 114.772 157.897 116.947 156.027 117.552C154.156 118.172 151.869 116.99 150.915 114.918C149.964 112.852 150.717 110.675 152.591 110.057C152.941 109.944 153.305 109.894 153.673 109.9V109.9ZM160.352 122.162C161.304 122.155 162.274 122.499 163.097 123.136C163.919 123.774 164.545 124.665 164.866 125.658C165.236 126.801 165.177 127.991 164.701 128.969C164.226 129.946 163.374 130.63 162.332 130.869C161.816 130.988 161.269 130.995 160.722 130.888C160.176 130.781 159.64 130.564 159.146 130.248C158.651 129.932 158.208 129.524 157.842 129.046C157.475 128.569 157.192 128.033 157.009 127.467C156.639 126.325 156.699 125.134 157.174 124.157C157.649 123.18 158.502 122.496 159.543 122.256C159.806 122.196 160.076 122.164 160.352 122.162H160.352Z" fill="#353939" fill-opacity="0.07"/>
<path d="M27.2099 4.62763L27.4036 4.37223C27.5145 4.19921 27.6393 4.03723 27.7578 3.88164C28.5162 2.99464 29.243 2.33291 30.0135 1.77641C46.4361 -2.98344 79.5414 13.3911 111.948 41.8475C113.733 52.6843 103.087 61.3752 92.4985 59.4391C92.4691 59.4025 92.443 59.3844 92.4098 59.3572C90.7102 57.8372 89.0213 56.3798 87.3145 54.9247C86.4553 54.1924 85.593 53.4246 84.7427 52.7122C82.192 50.5844 79.6486 48.5316 77.1188 46.5725C76.2468 45.9006 75.381 45.2851 74.5097 44.6277C72.882 43.3981 71.243 42.169 69.6266 41.0066C68.4976 40.2057 67.3945 39.4696 66.2764 38.7049C64.7795 37.6762 63.2841 36.6549 61.8159 35.7023C60.7824 35.0276 59.7555 34.3931 58.7309 33.7592C57.1856 32.8007 55.659 31.8748 54.1531 31.0032C53.171 30.4292 52.1906 29.8685 51.2219 29.3372C49.9711 28.6453 48.7551 27.9979 47.5344 27.3693C46.5455 26.8613 45.5605 26.3651 44.5972 25.8966C43.3981 25.3163 42.2322 24.7867 41.0659 24.2739C40.1465 23.8685 39.2075 23.4575 38.3056 23.087C37.161 22.622 36.059 22.2228 34.9496 21.831C34.0914 21.5234 33.2192 21.2059 32.3814 20.9423C31.3072 20.599 30.2649 20.3309 29.2316 20.0626C28.4478 19.864 27.6602 19.637 26.9092 19.486C26.0768 19.3065 25.3146 19.2241 24.5246 19.1042C24.5306 19.1126 24.5245 19.1221 24.5214 19.1315C24.3783 17.9038 24.2902 16.6971 24.2715 15.7912C24.2725 15.4507 24.2776 15.0992 24.293 14.7535L24.3343 14.1101C24.3732 13.2533 24.4172 12.3976 24.5385 11.5838C24.6254 11.0676 24.7328 10.5629 24.8472 10.0565C25.017 9.33161 25.2131 8.63456 25.4687 7.97664C25.6481 7.46222 25.8722 6.96712 26.1014 6.49949C26.432 5.80933 26.8102 5.19085 27.2106 4.62949L27.2099 4.62763Z" fill="#353939" fill-opacity="0.07"/>
<path d="M3.49464 20.1614C3.67102 19.9024 3.84139 19.6332 4.04369 19.3981C4.14394 19.2681 4.22247 19.1189 4.32243 18.9981C4.8767 18.3803 5.49684 17.8163 6.19425 17.3089C6.27839 17.2449 6.36809 17.179 6.4707 17.1103L25.5882 3.75151C25.6296 3.73365 25.655 3.71478 25.7005 3.7052C25.5949 3.74194 25.5357 3.83891 25.4295 3.87822C25.0076 4.4805 24.6008 5.13686 24.2528 5.86473C24.0011 6.37452 23.75 6.92055 23.5481 7.47762C23.2767 8.20167 23.0543 8.95833 22.8809 9.74751C22.7513 10.2784 22.6429 10.8194 22.5506 11.3831C22.433 12.2435 22.3691 13.1495 22.3224 14.0586L22.293 14.702C22.2783 15.069 22.2678 15.4306 22.2637 15.8294C22.2958 16.9943 22.3759 18.5098 22.6024 20.1254C22.6158 20.2772 22.6532 20.4549 22.6893 20.6224L22.7281 20.8557C22.9367 22.2826 23.2436 23.8051 23.6717 25.4944L23.7118 25.7049C23.7386 25.8486 23.772 25.9831 23.8067 26.114C24.1617 27.4938 24.6368 29.0379 25.3342 31.0779C25.4909 31.5466 25.6764 32.0244 25.8459 32.5006L26.0691 33.0992C26.5432 34.3798 27.0652 35.6946 27.6398 37.0201C27.9054 37.6792 28.1757 38.3401 28.4804 39.0141C29.2285 40.6728 30.0507 42.3689 30.9165 44.1024L31.091 44.4549C31.1898 44.6754 31.2945 44.8878 31.4219 45.1111C32.3674 46.9493 33.4654 48.9474 34.7892 51.2171C36.5118 54.1916 38.1436 56.8432 39.7668 59.3238C41.3549 61.7352 43.0878 64.2433 45.4802 67.5477C45.8999 68.1298 46.3504 68.7217 46.7962 69.3068L47.5684 70.3484C48.8739 72.0803 50.1945 73.8154 51.5774 75.558C52.1694 76.315 52.7865 77.0764 53.417 77.834L54.123 78.6824C55.5292 80.4175 56.979 82.1433 58.486 83.8651C59.0292 84.5013 59.5883 85.1431 60.1636 85.7912L60.7074 86.42C64.5588 90.741 67.6261 94.0536 70.6736 97.1537C72.6873 99.1903 74.7096 101.153 76.7425 103.102C78.3153 104.606 79.8913 106.063 81.4742 107.523C82.5761 108.547 83.6491 109.557 84.7407 110.512C86.3975 111.983 88.0496 113.406 89.7044 114.813L91.0489 115.952C91.6355 116.444 92.2087 116.94 92.7946 117.417C94.6676 118.97 96.5439 120.454 98.4285 121.923L99.4765 122.751C99.9484 123.136 100.439 123.513 100.901 123.88C102.919 125.425 105.064 126.985 107.851 128.948L108.165 129.195C108.442 129.395 108.727 129.607 108.995 129.804C111.668 131.65 114.379 133.456 117.284 135.289C117.763 135.6 118.233 135.874 118.705 136.154L119.546 136.672C121.45 137.839 123.362 138.959 125.205 140.023C127.168 141.13 129.104 142.19 131.002 143.16L131.862 143.574C134.127 144.716 136.167 145.696 138.109 146.541C138.216 146.595 138.387 146.663 138.555 146.725C140.878 147.731 142.855 148.517 144.684 149.185L144.923 149.276C146.931 149.979 148.846 150.567 150.766 151.092L151.374 151.266C153.084 151.712 154.784 152.085 156.575 152.392C156.989 152.475 157.195 152.498 157.397 152.529C158.916 152.767 160.503 152.92 162.069 152.983L162.693 153.001C164.382 153.038 165.816 152.974 167.142 152.796C167.377 152.768 167.588 152.731 167.814 152.692C168.941 152.529 169.936 152.241 170.905 151.946L151.942 165.196C150.867 165.946 149.652 166.524 148.331 166.978C147.896 167.132 147.384 167.186 146.922 167.307C145.993 167.538 145.06 167.777 144.028 167.89C143.416 167.955 142.736 167.936 142.093 167.955C141.109 168.001 140.132 168.028 139.09 167.952C138.342 167.906 137.555 167.797 136.776 167.702C135.726 167.569 134.67 167.426 133.565 167.209C132.715 167.046 131.84 166.827 130.958 166.606C129.831 166.327 128.691 166.028 127.511 165.672C126.586 165.392 125.647 165.08 124.699 164.754C123.463 164.336 122.223 163.868 120.945 163.369C119.986 162.991 119.019 162.592 118.038 162.166C116.682 161.59 115.304 160.952 113.902 160.285C112.955 159.831 112.008 159.385 111.037 158.9C109.485 158.113 107.904 157.26 106.315 156.383C105.706 156.048 105.124 155.773 104.512 155.422C104.266 155.287 104.009 155.111 103.758 154.979C101.783 153.832 99.773 152.61 97.7399 151.348C97.0619 150.925 96.396 150.535 95.7097 150.102C93.428 148.632 91.1183 147.075 88.7864 145.461C88.3339 145.143 87.897 144.869 87.4411 144.552C86.3333 143.768 85.2116 142.885 84.0941 142.068C82.5985 140.974 81.1069 139.894 79.6027 138.743C78.5748 137.955 77.543 137.111 76.5169 136.292C74.8858 134.996 73.2511 133.718 71.6118 132.349C71.3096 132.106 71.0118 131.883 70.7168 131.626C69.7982 130.855 68.8759 130.013 67.9541 129.227C66.4861 127.969 65.024 126.714 63.5613 125.402C62.3529 124.324 61.1586 123.209 59.9577 122.101C58.5268 120.771 57.0855 119.435 55.656 118.066C55.1732 117.598 54.6777 117.164 54.189 116.69C52.6152 115.146 51.0288 113.573 49.4625 111.973C45.9925 108.436 42.7392 104.902 39.5849 101.364C39.2316 100.957 38.8248 100.565 38.4739 100.159C38.0128 99.6504 37.6218 99.1436 37.173 98.6318C35.7963 97.0336 34.4517 95.4477 33.1417 93.8538C32.1652 92.677 31.189 91.5048 30.2548 90.3371C28.986 88.754 27.7913 87.1874 26.6079 85.6203C25.9919 84.8149 25.3192 84.002 24.7273 83.2032C24.5358 82.9396 24.3803 82.698 24.1847 82.4417C22.5056 80.1286 20.9111 77.859 19.3929 75.6021C19.0835 75.1499 18.7401 74.6941 18.4441 74.2378C16.6775 71.5749 15.0484 68.9546 13.5347 66.3874C13.4212 66.2098 13.3032 66.023 13.1952 65.851C12.0888 63.9568 11.0579 62.1028 10.0911 60.2682C9.94858 59.9908 9.8243 59.7208 9.67023 59.4389C8.76001 57.6748 7.90698 55.9484 7.12626 54.2471C6.82325 53.6064 6.56233 52.9955 6.28907 52.3661C5.69563 51.0244 5.14938 49.6979 4.65637 48.4009C4.40931 47.7748 4.16277 47.1364 3.94309 46.5155C3.8148 46.1549 3.6542 45.7759 3.5306 45.4259C3.35997 44.9262 3.28126 44.4865 3.12451 43.9964C2.65844 42.5397 2.25036 41.1143 1.91724 39.745C1.73258 38.9697 1.55993 38.2082 1.41428 37.4686C1.15638 36.1138 0.982946 34.8235 0.866288 33.5615C0.814242 33.1396 0.694324 32.6581 0.676806 32.2443C0.660839 32.0255 0.684557 31.8397 0.679903 31.6356C0.658457 31.036 0.682034 30.4722 0.694602 29.8972C0.716049 29.0203 0.756 28.16 0.859884 27.34C0.926695 26.8018 1.03105 26.2846 1.14597 25.7668C1.23158 25.3568 1.26088 24.911 1.37421 24.5211C1.45835 24.2016 1.62059 23.9481 1.72055 23.6506C1.90924 23.1188 2.12048 22.6117 2.35981 22.1246C2.49409 21.8353 2.56559 21.5077 2.72086 21.2312C2.94375 20.8431 3.23063 20.5154 3.49387 20.1656L3.49464 20.1614Z" fill="#353939" fill-opacity="0.07"/>
<path d="M104.698 31.9121L102.951 33.3184L110.305 39.5637C113.096 41.9631 114.647 45.1963 114.621 48.5573C114.594 51.9183 112.992 55.1338 110.163 57.5017C107.335 59.8695 103.51 61.1973 99.5245 61.1951C95.5391 61.1929 91.7166 59.8609 88.8919 57.4899L81.1236 50.8894L79.3766 52.2957L87.1794 58.9224C90.4546 61.6765 94.8897 63.225 99.5149 63.2293C104.14 63.2336 108.579 61.6934 111.862 58.9455C115.143 56.1975 117.001 52.4658 117.03 48.566C117.058 44.6662 115.255 40.9155 112.014 38.1337L112.017 38.1307L104.698 31.9121Z" fill="#353939" fill-opacity="0.07"/>
<path d="M104.222 53.8489L106.689 52.0263L112.239 57.3682L109.772 59.1909L104.222 53.8489Z" fill="#353939" fill-opacity="0.07"/>
</svg>
